<?xml version="1.0" encoding="UTF-8" standalone="no"?>
<!-- Created with Inkscape (http://www.inkscape.org/) -->

<svg
   width="52mm"
   height="52mm"
   viewBox="0 0 52 52"
   version="1.1"
   id="svg5"
   inkscape:version="1.2 (1:1.2.1+202207142221+cd75a1ee6d)"
   sodipodi:docname="logo-geotuileur.svg"
   xml:space="preserve"
   inkscape:export-filename="logo-geotuileur.png"
   inkscape:export-xdpi="300"
   inkscape:export-ydpi="300"
   xmlns:inkscape="http://www.inkscape.org/namespaces/inkscape"
   xmlns:sodipodi="http://sodipodi.sourceforge.net/DTD/sodipodi-0.dtd"
   xmlns="http://www.w3.org/2000/svg"
   xmlns:svg="http://www.w3.org/2000/svg"><sodipodi:namedview
     id="namedview7"
     pagecolor="#ffffff"
     bordercolor="#666666"
     borderopacity="1.0"
     inkscape:showpageshadow="false"
     inkscape:pageopacity="0.0"
     inkscape:pagecheckerboard="0"
     inkscape:deskcolor="#d1d1d1"
     inkscape:document-units="mm"
     showgrid="false"
     inkscape:zoom="2.111589"
     inkscape:cx="28.177832"
     inkscape:cy="66.300781"
     inkscape:window-width="1920"
     inkscape:window-height="1171"
     inkscape:window-x="1920"
     inkscape:window-y="0"
     inkscape:window-maximized="1"
     inkscape:current-layer="layer1"
     showguides="false"><inkscape:grid
       type="axonomgrid"
       id="grid11807"
       gridanglex="20"
       gridanglez="20"
       originx="0"
       originy="0" /></sodipodi:namedview><defs
     id="defs2"><linearGradient
       id="SVGID_4_-9"
       gradientUnits="userSpaceOnUse"
       x1="234.4702"
       y1="250.03419"
       x2="232.211"
       y2="101.4977"><stop
         offset="0"
         style="stop-color:#589632"
         id="stop27-1" /><stop
         offset="1"
         style="stop-color:#93B023"
         id="stop29-2" /></linearGradient><linearGradient
       id="SVGID_5_-9"
       gradientUnits="userSpaceOnUse"
       x1="188.7529"
       y1="250.2354"
       x2="186.5125"
       y2="102.9362"
       gradientTransform="matrix(26.145849,0,0,26.145849,-18663.102,-11331.223)"><stop
         offset="0"
         style="stop-color:#589632"
         id="stop36-24" /><stop
         offset="1"
         style="stop-color:#93B023"
         id="stop38-45" /></linearGradient></defs><g
     inkscape:label="Calque 1"
     inkscape:groupmode="layer"
     id="layer1"><g
       id="g124694"
       transform="translate(-0.0094249,12.904392)"><path
         d="m 3.5778673,20.898664 q -0.8966057,0 -1.299667,0.501771 -0.3948356,0.493544 -0.3948356,1.357247 0,0.419513 0.098709,0.764994 0.098709,0.337255 0.2961267,0.584027 0.1974178,0.246772 0.4935444,0.38661 0.2961267,0.131612 0.6909622,0.131612 0.2138693,0 0.3619326,-0.0082 0.1562891,-0.0082 0.2714494,-0.0329 v -1.982403 h 1.2832155 v 2.821429 q -0.2303207,0.09048 -0.7403166,0.189192 -0.5099959,0.106934 -1.2585383,0.106934 -0.6416077,0 -1.1680551,-0.197417 Q 1.6941727,25.324113 1.3240144,24.945729 0.95385609,24.567345 0.74821259,24.01622 q -0.1974178,-0.551125 -0.1974178,-1.258538 0,-0.71564 0.222095,-1.266764 0.222095,-0.551125 0.60870481,-0.929509 0.3866098,-0.38661 0.9048314,-0.584027 0.5264474,-0.197418 1.1187007,-0.197418 0.4030613,0 0.7238652,0.05758 0.3290296,0.04935 0.5593503,0.123386 0.2385465,0.06581 0.3866098,0.139838 0.1562891,0.07403 0.222095,0.11516 L 4.9268887,21.244146 Q 4.663665,21.104308 4.3181839,21.005599 3.9809286,20.898664 3.5778673,20.898664 Z"
         style="font-size:8.22574px;line-height:1.25;letter-spacing:0px;word-spacing:0px;fill:#3a74ac;stroke-width:0.205645"
         id="path122933" /><path
         d="m 6.5720337,25.612014 v -5.700438 h 3.8496473 v 1.077572 H 7.8552497 v 1.1187 H 10.13378 v 1.052895 H 7.8552497 v 1.373699 h 2.7556233 v 1.077572 z"
         style="font-size:8.22574px;line-height:1.25;letter-spacing:0px;word-spacing:0px;fill:#3a74ac;stroke-width:0.205645"
         id="path122935" /><path
         d="m 12.486321,22.757682 q 0,0.419513 0.09871,0.756768 0.106935,0.337255 0.296127,0.584027 0.197418,0.238547 0.477093,0.370159 0.279675,0.131612 0.641608,0.131612 0.353707,0 0.633382,-0.131612 0.287901,-0.131612 0.477093,-0.370159 0.197418,-0.246772 0.296126,-0.584027 0.106935,-0.337255 0.106935,-0.756768 0,-0.419513 -0.106935,-0.756768 -0.09871,-0.345481 -0.296126,-0.584028 -0.189192,-0.246772 -0.477093,-0.378384 -0.279675,-0.131612 -0.633382,-0.131612 -0.361933,0 -0.641608,0.139838 -0.279675,0.131612 -0.477093,0.378384 -0.189192,0.238546 -0.296127,0.584027 -0.09871,0.337256 -0.09871,0.748543 z m 4.351416,0 q 0,0.732091 -0.222095,1.291441 -0.213869,0.551125 -0.592253,0.929509 -0.378384,0.370158 -0.904831,0.55935 -0.518222,0.189192 -1.118701,0.189192 -0.584028,0 -1.102249,-0.189192 -0.518222,-0.189192 -0.904832,-0.55935 -0.38661,-0.378384 -0.608705,-0.929509 -0.222095,-0.55935 -0.222095,-1.291441 0,-0.732091 0.230321,-1.283216 0.230321,-0.55935 0.616931,-0.937734 0.394835,-0.378384 0.904831,-0.567576 0.518222,-0.189192 1.085798,-0.189192 0.584027,0 1.102249,0.189192 0.518222,0.189192 0.904831,0.567576 0.38661,0.378384 0.608705,0.937734 0.222095,0.551125 0.222095,1.283216 z"
         style="font-size:8.22574px;line-height:1.25;letter-spacing:0px;word-spacing:0px;fill:#3a74ac;stroke-width:0.205645"
         id="path122937" /><path
         d="m 22.135106,19.911576 v 1.094023 h -1.719179 v 4.606415 h -1.283216 v -4.606415 h -1.71918 v -1.094023 z"
         style="font-size:8.22574px;line-height:1.25;letter-spacing:0px;word-spacing:0px;fill:#696969;stroke-width:0.205645"
         id="path122939" /><path
         d="m 25.186842,25.727174 q -0.600479,0 -1.036443,-0.164515 -0.435965,-0.17274 -0.723865,-0.468867 Q 23.146858,24.78944 23.007021,24.378153 22.875409,23.95864 22.875409,23.45687 v -3.545294 h 1.283215 v 3.438359 q 0,0.345481 0.07403,0.592253 0.08226,0.238547 0.213869,0.394836 0.139838,0.148063 0.32903,0.213869 0.197418,0.06581 0.427738,0.06581 0.468868,0 0.756769,-0.287901 0.296126,-0.287901 0.296126,-0.978863 V 19.91158 h 1.283216 v 3.545294 q 0,0.50177 -0.139838,0.921283 -0.139837,0.419512 -0.427738,0.723865 -0.287901,0.296126 -0.732091,0.460641 -0.44419,0.164515 -1.052895,0.164515 z"
         style="font-size:8.22574px;line-height:1.25;letter-spacing:0px;word-spacing:0px;fill:#696969;stroke-width:0.205645"
         id="path122941" /><path
         d="m 28.773256,19.911576 h 1.283216 v 5.700438 h -1.283216 z"
         style="font-size:8.22574px;line-height:1.25;letter-spacing:0px;word-spacing:0px;fill:#696969;stroke-width:0.205645"
         id="path122943" /><path
         d="m 35.181107,24.509764 v 1.10225 h -3.808518 v -5.700438 h 1.283216 v 4.598188 z"
         style="font-size:8.22574px;line-height:1.25;letter-spacing:0px;word-spacing:0px;fill:#696969;stroke-width:0.205645"
         id="path122945" /><path
         d="m 36.003679,25.612014 v -5.700438 h 3.849647 v 1.077572 h -2.566431 v 1.1187 h 2.27853 v 1.052895 h -2.27853 v 1.373699 h 2.755623 v 1.077572 z"
         style="font-size:8.22574px;line-height:1.25;letter-spacing:0px;word-spacing:0px;fill:#696969;stroke-width:0.205645"
         id="path122947" /><path
         d="m 43.217646,25.727174 q -0.600479,0 -1.036444,-0.164515 -0.435964,-0.17274 -0.723865,-0.468867 Q 41.177662,24.78944 41.037824,24.378153 40.906213,23.95864 40.906213,23.45687 v -3.545294 h 1.283215 v 3.438359 q 0,0.345481 0.07403,0.592253 0.08226,0.238547 0.213869,0.394836 0.139838,0.148063 0.32903,0.213869 0.197417,0.06581 0.427738,0.06581 0.468867,0 0.756768,-0.287901 0.296127,-0.287901 0.296127,-0.978863 V 19.91158 h 1.283215 v 3.545294 q 0,0.50177 -0.139837,0.921283 -0.139838,0.419512 -0.427739,0.723865 -0.287901,0.296126 -0.732091,0.460641 -0.44419,0.164515 -1.052894,0.164515 z"
         style="font-size:8.22574px;line-height:1.25;letter-spacing:0px;word-spacing:0px;fill:#696969;stroke-width:0.205645"
         id="path122949" /><path
         d="m 48.473885,19.84577 q 1.283216,0 1.965952,0.460641 0.682737,0.452416 0.682737,1.414827 0,0.60048 -0.279676,0.978864 -0.271449,0.370158 -0.789671,0.584027 0.172741,0.213869 0.361933,0.493545 0.189192,0.271449 0.370158,0.575801 0.189192,0.296127 0.361933,0.625157 0.17274,0.320804 0.320804,0.633382 H 50.02855 q -0.156289,-0.279675 -0.320804,-0.567576 -0.156289,-0.287901 -0.329029,-0.559351 -0.164515,-0.271449 -0.32903,-0.509996 -0.164515,-0.246772 -0.32903,-0.44419 h -0.633382 v 2.081113 H 46.80406 v -5.618181 q 0.419513,-0.08226 0.863703,-0.11516 0.452415,-0.0329 0.806122,-0.0329 z m 0.07403,1.094023 q -0.139838,0 -0.254998,0.0082 -0.106935,0.0082 -0.205644,0.01645 v 1.54644 h 0.361933 q 0.723865,0 1.036443,-0.180967 0.312578,-0.180966 0.312578,-0.61693 0,-0.419513 -0.320803,-0.592254 -0.312579,-0.180966 -0.929509,-0.180966 z"
         style="font-size:8.22574px;line-height:1.25;letter-spacing:0px;word-spacing:0px;fill:#696969;stroke-width:0.205645"
         id="path122951" /><path
         id="path6333-8-1"
         style="fill:#565656;fill-opacity:0.242956;stroke-width:1.12954;stroke-linecap:round;stroke-linejoin:round"
         d="m 45.012835,13.373327 c -2.47119,-0.37881 -9.35416,6.43528 -20.52681,5.00363 C 13.180785,16.928317 3.6944339,12.026227 4.3846839,8.5786874 5.074934,5.1311472 14.776155,3.6783572 26.052955,5.3337772 c 11.27681,1.6554202 22.43525,8.5722498 18.95988,8.0395498 z"
         sodipodi:nodetypes="sssss" /><path
         style="fill:#0d1c2b;fill-opacity:1;stroke-width:0.21066px"
         d="m 37.479855,15.437817 c 2.08408,-2.43837 4.17404,-4.8579 7.79566,-2.36649 -2.52307,-3.3434396 -4.88209,-1.99969 -7.79566,2.36649 z"
         id="path2183-3-6-3-9-1-1-9-0-0"
         sodipodi:nodetypes="ccc" /><path
         style="fill:#0d1c2b;fill-opacity:1;stroke-width:0.21066px"
         d="m 27.967085,10.805847 c 2.08409,-2.4383596 4.17404,-4.8578998 7.79567,-2.3664796 -2.52308,-3.3434502 -4.8821,-1.9997 -7.79567,2.3664796 z"
         id="path2183-3-6-3-9-8-3-2-3"
         sodipodi:nodetypes="ccc" /><path
         style="color:#000000;fill:#3a74ac;fill-opacity:1;stroke-width:0.21066px;stroke-linecap:round;stroke-linejoin:round"
         d="m 18.304735,0.60604721 15.25862,5.35527999 c -3.72453,-0.10349 -4.94574,3.2127902 -5.71754,5.0318098 L 12.853145,4.5414072 c 0.92346,-1.65516 2.97867,-4.31322999 5.45159,-3.93535999 z"
         id="path18263-7-1-1-4" /><path
         style="color:#000000;fill:#2f5e8b;fill-opacity:1;stroke-width:0.21066px;stroke-linecap:round;stroke-linejoin:round"
         d="m 29.597315,7.7562874 c -0.86735,1.04351 -1.3656,2.3273396 -1.7515,3.2368496 L 12.853145,4.5414072 c 0.46173,-0.82758 1.2064,-1.90589 2.14475,-2.73006 4.19018,2.56208 6.81808,3.56244 14.59942,5.9449402 z"
         id="path18263-8-9-9-0-0"
         sodipodi:nodetypes="ccccc" /><path
         id="path18260-2-4-5-3"
         style="color:#000000;fill:#224667;fill-opacity:1;stroke-width:0.796196;stroke-linecap:round;stroke-linejoin:round"
         d="m 17.847775,0.46408721 c -1.09147,-0.006 -2.08678,0.53575 -2.91962,1.26724999 -0.95182,0.836 -1.70167,1.92308 -2.16791,2.75875 -0.03,0.0548 -0.006,0.12344 0.0514,0.14771 l 14.84086,6.3864598 c 0.23428,0.11217 0.56094,0.14733 0.66284,-0.0551 0.93674,-1.9997496 2.31636,-3.6017496 3.60303,-4.1551996 0.64334,-0.27672 1.2415,-0.30818 1.81942,-0.0526 0.57791,0.25552 1.1619,0.82505 1.6824,1.85192 0.0962,0.18899 0.32729,0.26431 0.51636,0.16828 0.18946,-0.0957 0.26538,-0.32696 0.16952,-0.51636 -0.57367,-1.13177 -1.27107,-1.85826 -2.05888,-2.2065902 -5.11275,-1.89635 -10.5035,-3.72588 -15.70736,-5.55245999 -0.006,-0.002 -0.0122,-0.004 -0.0186,-0.005 v 4.2e-4 c -0.15965,-0.0244 -0.31764,-0.0366 -0.47357,-0.0374 z m -0.007,0.21107 c 0.1461,6.6e-4 0.2939,0.012 0.44313,0.0346 l 14.57342,5.11508999 c -0.008,2.1e-4 -0.0165,1.4e-4 -0.0247,4.1e-4 -0.41079,0.0135 -0.82189,0.11293 -1.21747,0.28307 -0.43706,0.18801 -0.86221,0.4568502 -1.26931,0.7920402 -0.31206,0.23234 -0.58812,0.49837 -0.82948,0.78874 -0.033,0.0397 -0.0647,0.0802 -0.0967,0.12055 -0.78472,0.97116 -1.4036,1.99419 -1.83339,2.9578896 L 13.018625,4.4995772 c 0.46017,-0.80735 1.15642,-1.82505 2.04941,-2.60938 0.80819,-0.70986 1.75009,-1.21964999 2.77273,-1.21500999 z"
         sodipodi:nodetypes="ssccccsscccccccsscccscscccsssc" /><path
         style="color:#000000;fill:#3a74ac;fill-opacity:1;stroke-width:0.21066px;stroke-linecap:round;stroke-linejoin:round"
         d="m 33.182145,7.4319574 9.89397,3.1613296 c -1.86227,-0.0517 -3.0987,0.75145 -3.96604,1.79496 -0.86735,1.04351 -1.3656,2.32734 -1.7515,3.23685 l -9.62803,-4.25778 c 0.46173,-0.82758 1.2064,-1.9058796 2.14475,-2.7300596 0.93835,-0.82418 2.07039,-1.39423 3.30685,-1.2053 z m 0,0 9.89397,3.1613296 c -1.86227,-0.0517 -3.0987,0.75145 -3.96604,1.79496 -0.86735,1.04351 -1.3656,2.32734 -1.7515,3.23685 l -9.62803,-4.25778 c 0.46173,-0.82758 1.2064,-1.9058796 2.14475,-2.7300596 0.93835,-0.82418 2.07039,-1.39423 3.30685,-1.2053 z"
         id="path18263-6-0-7-1-9"
         sodipodi:nodetypes="ccsccscccsccsc" /><path
         style="color:#000000;fill:#2f5e8b;fill-opacity:1;stroke-width:0.21066px;stroke-linecap:round;stroke-linejoin:round"
         d="m 39.110075,12.388247 c -0.86735,1.04351 -1.3656,2.32734 -1.7515,3.23685 l -9.62803,-4.25778 c 0.46173,-0.82758 1.2064,-1.9058796 2.14475,-2.7300596 2.18545,1.07405 4.72879,2.4283996 9.23478,3.7509896 z m 0,0 c -0.86735,1.04351 -1.3656,2.32734 -1.7515,3.23685 l -9.62803,-4.25778 c 0.46173,-0.82758 1.2064,-1.9058796 2.14475,-2.7300596 3.07702,2.8018696 5.87362,2.8732296 9.23478,3.7509896 z"
         id="path18263-6-14-2-8-1-1"
         sodipodi:nodetypes="cccccccccc" /><path
         id="path18260-32-3-4-0-9"
         style="color:#000000;fill:#224667;fill-opacity:1;stroke-width:0.796196;stroke-linecap:round;stroke-linejoin:round"
         d="m 27.609835,11.259057 c -0.03,0.0548 -0.006,0.12345 0.0514,0.14771 l 9.50403,4.24945 c 0.23428,0.11217 0.56094,0.14733 0.66284,-0.0551 0.93674,-1.99975 2.31636,-3.60174 3.60303,-4.1552 0.64334,-0.27672 1.2415,-0.30818 1.81942,-0.0526 0.57791,0.25552 1.1619,0.82505 1.6824,1.85192 0.0962,0.18899 0.32729,0.26431 0.51636,0.16828 0.18946,-0.0957 0.26538,-0.32696 0.16952,-0.51636 -0.57367,-1.13176 -1.27107,-1.85826 -2.05888,-2.20659 -5.11275,-1.8963496 -5.16668,-1.5888696 -10.37053,-3.4154396 -0.006,-0.002 -0.0122,-0.004 -0.0186,-0.005 v 4.1e-4 c -1.94475,-0.14206 -4.26541,1.69389 -5.56107,3.9883296 z m 5.52349,-3.7803696 9.23659,2.9780796 c -0.008,2.1e-4 -0.0165,1.4e-4 -0.0247,4.1e-4 -0.41079,0.0135 -0.82189,0.11293 -1.21746,0.28307 -0.43707,0.18801 -0.86222,0.45685 -1.26932,0.79204 -0.31206,0.23234 -0.58812,0.49837 -0.82947,0.78874 -0.033,0.0397 -0.0647,0.0802 -0.0967,0.12055 -0.78473,0.97116 -1.40361,1.99419 -1.8334,2.95789 l -9.23082,-4.13096 c 1.39458,-2.3579996 3.88709,-4.0314096 5.26525,-3.7898196 z"
         sodipodi:nodetypes="ccccssccccccccccscsccccc" /><path
         style="fill:#0d1c2b;fill-opacity:1;stroke-width:0.21066px"
         d="m 20.082685,13.678197 c 2.08409,-2.43837 4.17404,-4.8579096 7.79567,-2.36649 -2.52308,-3.3434496 -4.8821,-1.9996996 -7.79567,2.36649 z"
         id="path2183-3-6-3-9-4-7-5-8-6"
         sodipodi:nodetypes="ccc" /><path
         style="color:#000000;fill:#6397ca;fill-opacity:1;stroke-width:0.21066px;stroke-linecap:round;stroke-linejoin:round"
         d="m 10.420335,3.4783872 15.25862,5.3552802 c -3.72453,-0.10349 -4.94574,3.2127896 -5.71754,5.0318096 L 4.9687439,7.4137474 C 5.8922037,5.7585972 7.9474147,3.1005272 10.420335,3.4783872 Z"
         id="path18263-0-5-0-5-9" /><path
         style="color:#000000;fill:#3a74ab;fill-opacity:1;stroke-width:0.21066px;stroke-linecap:round;stroke-linejoin:round"
         d="m 21.712915,10.628637 c -0.86735,1.04351 -1.3656,2.32733 -1.7515,3.23684 L 4.9687439,7.4137474 C 5.497774,6.4655374 6.3982537,5.1881672 7.5359147,4.3410272 12.067585,7.1126074 15.336205,8.5157574 21.712915,10.628637 Z"
         id="path18263-0-8-9-3-0-3"
         sodipodi:nodetypes="ccccc" /><path
         id="path18260-3-2-6-6-3"
         style="color:#000000;fill:#2a5682;fill-opacity:1;stroke-width:0.796196;stroke-linecap:round;stroke-linejoin:round"
         d="m 9.9633747,3.3364272 c -1.09147,-0.006 -2.08678,0.53575 -2.91962,1.26725 -0.951821,0.836 -1.7016707,1.9230902 -2.1679108,2.7587502 -0.03,0.0548 -0.006,0.12344 0.0514,0.14771 L 19.768105,13.896597 c 0.23428,0.11217 0.56094,0.14734 0.66284,-0.0551 0.93674,-1.99975 2.31636,-3.60174 3.60303,-4.1551896 0.64334,-0.27673 1.2415,-0.30819 1.81942,-0.0526 0.57791,0.25551 1.1619,0.8250396 1.6824,1.8519096 0.0962,0.18899 0.32729,0.26431 0.51636,0.16828 0.18946,-0.0957 0.26538,-0.32696 0.16952,-0.51636 -0.57367,-1.13176 -1.27107,-1.8582596 -2.05888,-2.2065896 -5.11275,-1.89635 -10.5035,-3.7258802 -15.70736,-5.5524602 -0.006,-0.002 -0.0122,-0.004 -0.0185,-0.005 v 4.1e-4 c -0.15966,-0.0244 -0.31765,-0.0366 -0.4735803,-0.0374 z m -0.007,0.21107 c 0.1461003,6.6e-4 0.2939003,0.012 0.4431303,0.0346 l 14.57342,5.1150902 c -0.008,2.1e-4 -0.0165,1.4e-4 -0.0247,4.1e-4 -0.41079,0.0135 -0.82189,0.11293 -1.21747,0.28308 -0.43706,0.188 -0.86221,0.45684 -1.26931,0.79203 -0.31206,0.2323396 -0.58812,0.4983696 -0.82948,0.7887396 -0.033,0.0397 -0.0647,0.0802 -0.0967,0.12055 -0.10956,0.1356 -0.21588,0.27219 -0.31892,0.4095 -0.63493,0.84617 -1.14469,1.71924 -1.51447,2.54839 L 5.134224,7.3719174 c 0.46017,-0.80735 1.1564197,-1.8250502 2.0494107,-2.6093802 0.80819,-0.70986 1.75009,-1.21965 2.77273,-1.215 z"
         sodipodi:nodetypes="ssccccsscccccccsscccscsccscsssc" /><path
         style="fill:#603007;fill-opacity:1;stroke-width:0.21066px"
         d="m 29.797655,18.185627 c 2.08409,-2.43837 4.17404,-4.8579 7.79566,-2.36649 -2.52307,-3.34344 -4.88209,-1.99969 -7.79566,2.36649 z"
         id="path2183-3-6-3-9-1-0-2-1-4-8"
         sodipodi:nodetypes="ccc" /><path
         style="color:#000000;fill:#ee7913;fill-opacity:1;stroke-width:0.21066px;stroke-linecap:round;stroke-linejoin:round"
         d="m 25.499945,10.179767 9.89397,3.16133 c -3.72453,-0.10349 -4.94574,3.21279 -5.71754,5.03181 l -9.62803,-4.25778 c 0.92346,-1.65515 2.97868,-4.3132196 5.4516,-3.93536 z"
         id="path18263-6-1-8-0-6-0"
         sodipodi:nodetypes="ccccc" /><path
         style="color:#000000;fill:#df7010;fill-opacity:1;stroke-width:0.21066px;stroke-linecap:round;stroke-linejoin:round"
         d="m 31.427875,15.136057 c -0.86735,1.04351 -1.3656,2.32734 -1.7515,3.23685 l -9.62803,-4.25778 c 0.46173,-0.82758 1.2064,-1.90589 2.14475,-2.73006 2.82586,1.6551 5.38866,2.83245 9.23478,3.75099 z"
         id="path18263-6-1-3-9-6-2-5"
         sodipodi:nodetypes="ccccc" /><path
         id="path18260-32-5-7-3-5-6"
         style="color:#000000;fill:#a75000;fill-opacity:1;stroke-width:0.796196;stroke-linecap:round;stroke-linejoin:round"
         d="m 19.927635,14.006867 c -0.03,0.0548 -0.006,0.12345 0.0514,0.14771 l 9.50403,4.24945 c 0.23428,0.11217 0.56094,0.14733 0.66284,-0.0551 0.93674,-1.99975 2.31636,-3.60175 3.60303,-4.1552 0.64334,-0.27672 1.2415,-0.30818 1.81942,-0.0526 0.57791,0.25552 1.1619,0.82505 1.6824,1.85192 0.0962,0.18899 0.32729,0.26431 0.51636,0.16828 0.18946,-0.0957 0.26538,-0.32696 0.16952,-0.51636 -0.57367,-1.13177 -1.27107,-1.85826 -2.05888,-2.20659 -5.11275,-1.89635 -5.16668,-1.58887 -10.37053,-3.41544 -0.006,-0.002 -0.0122,-0.004 -0.0186,-0.005 v 4.1e-4 c -1.94475,-0.1420596 -4.26541,1.69389 -5.56107,3.98833 z m 5.52349,-3.78037 9.23659,2.97808 c -0.008,2.1e-4 -0.0165,1.4e-4 -0.0247,4.1e-4 -0.41079,0.0135 -0.82189,0.11293 -1.21746,0.28307 -0.43707,0.18801 -0.86222,0.45685 -1.26932,0.79204 -0.31206,0.23234 -0.58812,0.49837 -0.82947,0.78874 -0.033,0.0397 -0.0647,0.0802 -0.0967,0.12055 -0.78473,0.97116 -1.40361,1.99419 -1.8334,2.95789 l -9.23082,-4.13096 c 1.39459,-2.358 3.88709,-4.0314096 5.26525,-3.78982 z"
         sodipodi:nodetypes="ccccssccccccccccscsccccc" /><path
         style="fill:#ffffff;fill-opacity:0.308564;stroke:#010101;stroke-width:0.065;stroke-linecap:butt;stroke-linejoin:miter;stroke-dasharray:none;stroke-opacity:1"
         d="m 13.459515,4.6674372 -0.24549,0.56166 0.30945,0.50523 0.30301,0.42049 0.19654,0.4482802 0.0779,0.21762 -0.0589,0.38979 0.41203,0.33106 0.41217,0.32869 0.37383,0.21603 0.14564,0.16318 0.11623,0.32901 0.34641,0.15334 0.14682,0.16801 -0.34653,-0.50871 -0.0579,-0.14405 -0.2433,-0.36123 0.10964,-0.28288 h -0.56228 l -0.13405,-0.19423 0.15604,-0.51064 0.39071,-0.0725 0.45108,0.06 0.14005,-0.002 0.40094,0.19525 -0.0717,0.54488 0.20909,-0.23706 0.10708,-0.30577 0.67402,-0.0639 0.18768,-0.43429 0.39392,-0.13593 0.43761,-0.1388902 -0.64084,-0.24862 -0.32296,0.0964 -0.39143,0.0321 0.0579,-0.34032 -0.35222,0.0546 -0.12757,-0.17372 z"
         id="path117238" /><path
         style="fill:#ffffff;fill-opacity:0.308564;stroke:#010101;stroke-width:0.065;stroke-linecap:butt;stroke-linejoin:miter;stroke-dasharray:none;stroke-opacity:1"
         d="m 16.377555,8.6941474 0.58551,0.25359 0.48476,0.36198 0.34374,0.27511 0.38071,0.24134 0.0258,0.3207096 0.26389,0.36583 0.306,0.32994 0.20427,0.2551 -0.33816,0.17803 -0.19992,0.11157 -0.35967,0.4436 -0.37808,0.1754 h -0.31024 l -0.32729,0.11089 -0.20367,0.21144 -0.20316,0.0344 -1.62647,-0.69496 0.27238,-0.45296 0.27241,-0.24278 0.0317,-0.26659 -0.12032,-0.19758 -0.0788,-0.49336 -0.11149,-0.3543396 0.11916,-0.34535 0.35721,-0.1716 0.16863,-0.16326 0.3039,-0.21034 z"
         id="path117240" /><path
         style="fill:#ffffff;fill-opacity:0.308564;stroke:#010101;stroke-width:0.065;stroke-linecap:butt;stroke-linejoin:miter;stroke-dasharray:none;stroke-opacity:1"
         d="m 21.538735,1.8781172 0.0744,0.61388 -0.18163,0.38416 0.11413,0.0988 0.0125,0.21155 -0.18459,0.22553 -0.21808,0.31083 -0.192,0.3456 0.0622,0.53653 c 0,0 0.0425,0.25383 0.10065,0.38925 0.0582,0.13541 0.12009,0.2539 0.12009,0.2539 l 0.25124,-0.37713 0.21383,-0.16923 0.2297,-0.0639 0.44861,-0.0298 0.32633,-0.0855 0.31222,-0.179 0.39254,0.0845 0.3837,-0.14318 -0.36899,-0.12057 0.17575,-0.27252 h 0.15911 l 0.21585,0.16101 -0.0596,-0.35319 0.42578,-0.1123 0.1991,-0.3163 0.24372,-0.2702 z"
         id="path117242" /><path
         style="fill:#ffffff;fill-opacity:0.308564;stroke:#010101;stroke-width:0.065;stroke-linecap:butt;stroke-linejoin:miter;stroke-dasharray:none;stroke-opacity:1"
         d="m 23.389145,5.0940172 0.0921,0.40555 0.43794,-0.003 0.32331,-0.2251 -0.25635,-0.13856 -0.29801,-0.0321 z"
         id="path117244" /><path
         style="fill:#ffffff;fill-opacity:0.308564;stroke:#010101;stroke-width:0.065;stroke-linecap:butt;stroke-linejoin:miter;stroke-dasharray:none;stroke-opacity:1"
         d="m 24.220155,6.6223074 -0.0145,0.33664 -0.006,0.33781 -0.20829,0.1855 0.42931,0.1167 0.12421,-0.28849 -0.0306,-0.3704 z"
         id="path117246" /><path
         style="fill:#ffffff;fill-opacity:0.308564;stroke:#010101;stroke-width:0.065;stroke-linecap:butt;stroke-linejoin:miter;stroke-dasharray:none;stroke-opacity:1"
         d="m 23.883825,6.9677174 -0.39161,0.12019 0.27377,0.15229 z"
         id="path117248" /><path
         style="fill:#ffffff;fill-opacity:0.308564;stroke:#010101;stroke-width:0.065;stroke-linecap:butt;stroke-linejoin:miter;stroke-dasharray:none;stroke-opacity:1"
         d="m 23.872585,7.7715874 0.21493,-0.0452 0.22769,0.0371 0.2999,-0.0833 0.32908,-0.17896 0.2317,0.048 0.26435,-0.24362 0.0785,0.20073 0.31993,0.14047 0.30154,0.0246 0.23437,-0.16152 0.35826,-0.11142 0.33549,0.0274 0.25498,-0.0443 0.17391,-0.15178 -0.40206,-0.0684 -0.33621,-0.0742 0.14845,-0.28067 0.24979,-0.0828 0.28953,-0.10828 0.0635,-0.1393 -0.14808,-0.1893402 -0.52326,0.2049602 c 0,0 -0.51361,0.14963 -0.51008,0.1995 0.004,0.0499 -0.20075,0.48555 -0.20075,0.48555 l -0.19987,0.19457 -0.20133,-0.17346 -0.18133,-0.2641 -0.10653,-0.14754 0.14379,-0.31042 0.3024,-0.1680502 0.46212,-0.20012 0.37818,-0.19274 0.33635,-0.22717 0.39739,-0.18874 0.237,-0.008 0.48064,-0.0185 0.40244,0.42628 c 0,0 0.0741,0.10582 0.13725,0.18681 0.0632,0.081 0.18369,0.2979002 0.18369,0.3401102 0,0.0422 -0.10028,0.20867 -0.10028,0.20867 l -0.39127,-0.1456 -0.13695,0.0813 0.0137,0.34226 0.10195,0.16923 0.50151,-0.32744 0.34853,-0.0187 0.65052,-0.0511 0.39511,0.0812 0.12419,0.0925 c -0.84411,0.58327 -1.49956,1.58881 -2.15117,2.60294 l -0.26995,0.0649 -0.0771,0.10489 0.0443,0.13178 0.0646,0.19248 -0.24194,0.4416496 -0.41559,-0.5936696 0.0742,-0.21811 -0.21872,-0.2825 0.18434,-0.1724 -0.184,-0.12391 -0.21066,0.10159 -0.0894,0.16983 -0.037,-0.26206 -0.24661,-0.0796 -0.10917,0.0549 -0.0978,0.0567 -1.13224,-0.43584 -0.14873,-0.17469 -0.12272,-0.0152 -0.0304,0.054 -1.02371,-0.37046 0.0273,-0.10446 -0.0714,-0.13587 z"
         id="path117668"
         sodipodi:nodetypes="ccccccccccccccccccccccccccccccccccccccssccccccccccccccccccccccccccccccccccc" /><path
         style="fill:#ffffff;fill-opacity:0.308564;stroke:#010101;stroke-width:0.065;stroke-linecap:butt;stroke-linejoin:miter;stroke-dasharray:none;stroke-opacity:1"
         d="m 21.419495,10.801087 -0.059,-0.13184 0.009,-0.18759 -0.0722,-0.14329 c 0,0 -0.006,-0.31142 0.0371,-0.3534596 0.0428,-0.042 0.21925,-0.34934 0.21925,-0.34934 l 0.25354,-0.26927 0.36645,-0.10861 0.31294,-0.17211 0.164,-0.0823 0.35997,-0.0736 0.34054,0.0147 0.36652,0.0357 c -1.00199,0.41284 -1.62423,1.1381696 -2.29811,1.8210096 z"
         id="path117670"
         sodipodi:nodetypes="cccccccccccccc" /><path
         style="fill:#ffffff;fill-opacity:0.308564;stroke:#010101;stroke-width:0.065;stroke-linecap:butt;stroke-linejoin:miter;stroke-dasharray:none;stroke-opacity:1"
         d="m 23.155205,8.1749174 -0.13917,0.28956 c 0,0 -0.13371,0.12784 -0.0803,0.16826 0.0534,0.0404 0.16753,0.054 0.20613,0.0682 0.0386,0.0142 0.20918,0.0481 0.20918,0.0481 l 0.42212,-0.0103 0.0849,-0.13307 0.13064,-0.0458 0.23158,-0.10904 -0.38251,-0.13468 -0.11745,0.027 c 0,0 -0.18806,-0.0333 -0.23993,-0.0648 -0.0519,-0.0315 -0.1421,-0.10242 -0.1421,-0.10242 z"
         id="path117672" /><path
         style="fill:#ffffff;fill-opacity:0.308564;stroke:#010101;stroke-width:0.065;stroke-linecap:butt;stroke-linejoin:miter;stroke-dasharray:none;stroke-opacity:1"
         d="m 22.661285,11.276987 0.12551,0.22323 0.20295,0.0702 0.20222,0.13731 -0.2396,0.21072 0.10195,0.27497 0.009,0.29936 -0.11134,0.27593 -0.15502,0.1001 c 0,0 -0.27347,0.0823 -0.26507,0.1258 0.008,0.0435 -0.0187,0.17741 -0.0102,0.23727 0.009,0.0599 0.1012,0.29889 0.1012,0.29889 0,0 -0.009,0.0816 -0.0275,0.1549 -0.0185,0.0733 -0.0926,0.23832 -0.0926,0.23832 l 0.0733,0.22816 -0.0779,0.24553 c 0,0 -0.1427,0.12299 -0.0896,0.16528 0.0531,0.0423 0.38786,0.15391 0.38786,0.15391 l 0.50581,0.0985 0.548,-0.26912 0.25464,-0.27873 c 0,0 0.17586,0.0823 0.18948,0.0102 0.0136,-0.0722 0.12604,-0.29736 0.12604,-0.29736 0,0 0.4833,-0.10909 0.52208,-0.13623 0.0388,-0.0271 0.28014,-0.39848 0.28014,-0.39848 0,0 0,-0.21756 0.0278,-0.27577 0.0278,-0.0582 0.16692,-0.17886 0.22272,-0.18813 0.0558,-0.009 0.48341,-0.1499 0.48341,-0.1499 l 0.34927,-0.16146 0.35969,-0.24941 c 0,0 0.23788,-0.18688 0.16845,-0.18688 -0.0694,0 -0.49537,8e-5 -0.49537,8e-5 l -0.16227,-0.22882 -0.065,-0.31312 -0.10111,-0.4453 -0.037,-0.28794 0.0186,-0.2736 c 0,0 0.0793,-0.0935 0.12449,-0.0576 0.0452,0.036 0.15199,0.11563 0.15199,0.18664 0,0.071 -0.009,0.36357 0.009,0.43286 0.0186,0.0693 0.0835,0.38377 0.0835,0.38377 l 0.078,0.27018 0.17953,0.0173 0.53758,0.0199 c 0,0 0.20872,-0.12304 0.25871,-0.12824 0.05,-0.005 0.49539,-0.0697 0.49539,-0.0697 0,0 -0.0898,-0.24291 -0.13615,-0.25219 -0.0464,-0.009 -0.31562,-0.0366 -0.31562,-0.0366 l -0.13924,-0.30688 0.0272,-0.23394 -0.024,-0.053 -1.8441,-0.62603 c -0.26849,-0.0379 -0.53286,-0.041 -0.78656,0.046 -0.86502,0.18527 -1.41924,0.61449 -2.03026,0.99912 z"
         id="path117674"
         sodipodi:nodetypes="ccccccccccccscccsccccscscsccccscccccccsccccccccccccccc" /><path
         style="fill:#ffffff;fill-opacity:0.308564;stroke:#010101;stroke-width:0.065;stroke-linecap:butt;stroke-linejoin:miter;stroke-dasharray:none;stroke-opacity:1"
         d="m 25.401685,14.050727 -0.26423,0.17082 -0.11525,0.20343 v 0.1825 c 0,0 0.13734,0.13109 0.18605,0.11305 0.0487,-0.018 0.29884,-0.22172 0.29884,-0.22172 0,0 0.12381,-0.13198 0.16302,-0.16327 0.0392,-0.0313 0.17756,-0.18631 0.17756,-0.18631 l 0.0932,-0.15665 -0.15971,-0.0958 -0.18272,0.10953 z"
         id="path117676" /><path
         style="fill:#ffffff;fill-opacity:0.308564;stroke:#010101;stroke-width:0.065;stroke-linecap:butt;stroke-linejoin:miter;stroke-dasharray:none;stroke-opacity:1"
         d="m 27.675505,10.960727 -0.0635,0.167 c 0,0 0.068,0.17651 0.13755,0.17651 0.0695,0 0.22126,0.009 0.22126,0.009 l 0.10634,0.18593 0.31,0.13934 0.26242,0.11033 c 0,0 0.0887,0.14202 0.11586,0.20356 0.0271,0.0615 0.11051,0.18841 0.11051,0.18841 l 0.13918,0.0939 c 0,0 -0.0557,0.13332 -0.0557,0.2497 0,0.11637 0.0195,0.36362 0.0279,0.42853 0.008,0.0649 0.0177,0.35116 0.0177,0.35116 0,0 0.11371,0.0994 0.17875,0.0543 0.065,-0.0451 0.31864,-0.24137 0.31864,-0.24137 l 0.061,-0.1396 c 0,0 0.18777,-0.0572 0.23889,-0.0817 0.0511,-0.0246 0.42809,-0.12397 0.42809,-0.12397 l 0.33119,-0.0652 0.18195,0.20143 v 0.25489 l 0.14389,0.12586 0.12979,0.16351 v 0.11265 l 0.20991,0.12827 0.009,0.20284 c 0,0 0.24105,0.0624 0.28652,0.08 0.0455,0.0176 0.26264,0.0512 0.28992,-0.0122 0.0273,-0.0634 0.0828,-0.21621 0.0736,-0.25758 -0.009,-0.0414 -0.11972,-0.14619 -0.0928,-0.21595 0.0269,-0.0698 0.0902,-0.17139 0.0902,-0.17139 l 0.26315,-0.0338 0.15472,0.0854 0.0964,0.0496 c 0,0 0.33536,0.0192 0.40076,0.0192 0.0654,0 0.47278,-0.0604 0.52438,-0.10573 0.0516,-0.0453 0.24634,-0.25745 0.24634,-0.25745 l 2.7e-4,-0.18792 z"
         id="path118097" /><path
         style="fill:#ffffff;fill-opacity:0.308564;stroke:#010101;stroke-width:0.065;stroke-linecap:butt;stroke-linejoin:miter;stroke-dasharray:none;stroke-opacity:1"
         d="m 30.382835,14.064207 c 0,0 0.0559,0.44374 0.0922,0.48687 0.0363,0.0431 0.40084,0.32493 0.40084,0.36255 0,0.0376 0.1299,0.31559 0.1299,0.31559 0,0 0.11552,0.0382 0.10624,-0.003 -0.009,-0.0408 -0.0734,-0.3649 -0.0734,-0.3649 l -0.0434,-0.21463 c 0,0 0.065,-0.17007 0.065,-0.2645 0,-0.0944 -0.0463,-0.2982 -0.0463,-0.2982 l -0.12469,-0.24026 c 0,0 -0.005,0.16006 -0.005,0.225 0,0.0649 -0.009,0.33561 -0.009,0.33561 l -0.1,-0.065 -0.12486,-0.2504 -0.27335,-0.1509 z"
         id="path118099" /><path
         style="fill:#ffffff;fill-opacity:0.308564;stroke:#010101;stroke-width:0.065;stroke-linecap:butt;stroke-linejoin:miter;stroke-dasharray:none;stroke-opacity:1"
         d="m 33.601855,12.558937 0.10782,-0.18062 -0.0834,-0.2151 0.25535,-0.12923 c 0,0 0.25769,0.0666 0.29088,0.11819 0.0332,0.0516 0.15382,0.20003 0.15382,0.20003 l -0.0137,0.23429 0.20368,0.14687 0.0742,-0.32168 c 0,0 -0.0505,-0.12965 0.0825,-0.15326 0.13297,-0.0236 0.41398,-0.0601 0.47627,-0.0514 0.0623,0.009 0.17058,0.064 0.239,0.018 0.0684,-0.046 0.5558,-0.24224 0.59143,-0.28359 0.0356,-0.0413 0.27644,-0.30114 0.27644,-0.30114 l 0.0269,-0.32859 -0.17621,-0.0544 -0.10108,-0.14639 0.43603,-0.24564 0.36309,-0.10174 0.57713,0.0494 0.33232,0.16424 c 0,0 0.0208,0.0731 0.062,0.0555 0.0412,-0.0176 0.34103,-0.17776 0.34103,-0.17776 l 0.34926,-0.0103 c 0,0 0.0214,0.16859 0.0973,0.14327 0.0759,-0.0253 0.32039,-0.11838 0.32039,-0.11838 l 0.082,0.0865 -0.28383,0.16583 -0.58536,0.19907 -0.21749,0.14416 c 0,0 -0.13916,0.20841 -0.18472,0.33449 -0.0456,0.12608 -0.15043,0.32473 -0.0556,0.32093 0.0948,-0.004 0.81842,-0.20534 0.83698,-0.26789 0.0186,-0.0625 0.028,-0.23096 0.0464,-0.2844 0.0184,-0.0534 0.24973,-0.2569 0.24973,-0.2569 0,0 0.10323,0.0115 0.17038,0.0294 0.0671,0.0178 0.50655,0.0179 0.50655,0.0179 l 0.32611,-0.0967 0.21728,0.031 0.17718,-0.14633 -0.003,-0.14095 0.18413,-0.10362 c 0,0 0.26874,-0.0652 0.27802,-7.9e-4 l 0.009,0.0644 0.48849,-0.25891 -0.22181,-0.41409 -0.24815,-0.24754 -0.30362,-0.1929896 -0.17414,0.1730496 -0.25417,0.0247 -0.11777,-0.2029796 -0.50333,-0.10773 0.0678,-0.24955 -6.29352,-2.02522 c -1.15406,-0.0278 -2.00235,0.57334 -2.86659,1.14163 -0.86556,0.69725 -1.49369,1.4909896 -2.10179,2.2928696 z"
         id="path118101"
         sodipodi:nodetypes="ccccsccccscssccccccccsccscccccsccsccccccccccccccccccccccc" /><path
         style="fill:#ffffff;fill-opacity:0.308564;stroke:#010101;stroke-width:0.065;stroke-linecap:butt;stroke-linejoin:miter;stroke-dasharray:none;stroke-opacity:1"
         d="m 35.616345,12.655487 -0.13643,0.15939 -0.22585,0.0966 -0.39019,-10e-4 -0.0603,-0.002 -0.0363,0.0976 0.34509,0.0714 c 0,0 0.19295,0.0239 0.30528,-0.009 0.11232,-0.0325 0.37138,-0.17293 0.37138,-0.17293 l 0.0862,-0.21409 c 0,0 0.0536,-0.0689 0.10333,-0.0782 0.0497,-0.009 0.15119,-0.0824 0.15119,-0.0824 l -0.0647,-0.12895 -0.1752,0.0278 -0.12773,0.19218 z"
         id="path118103" /><path
         style="fill:#ffffff;fill-opacity:0.308564;stroke:#010101;stroke-width:0.065;stroke-linecap:butt;stroke-linejoin:miter;stroke-dasharray:none;stroke-opacity:1"
         d="m 29.356395,13.446717 -0.15426,0.0733 c 0,0 -0.0369,0.0562 0.008,0.0932 0.0447,0.037 0.15851,0.007 0.15851,0.007 l 0.0717,-0.1422 z"
         id="path118105" /><path
         style="fill:#ffffff;fill-opacity:0.308564;stroke:#010101;stroke-width:0.065;stroke-linecap:butt;stroke-linejoin:miter;stroke-dasharray:none;stroke-opacity:1"
         d="m 19.332685,6.0909872 c 0,0 -0.0487,0.13928 -0.008,0.17286 0.041,0.0336 0.20988,0.1019902 0.20988,0.1019902 0,0 0.10204,-0.1767402 0.11061,-0.2864102 0.009,-0.10968 0.0685,-0.25517 0.0685,-0.25517 0,0 0.0339,-0.0644 -0.026,-0.19309 -0.06,-0.12871 -0.15593,-0.34511 -0.1626,-0.39982 -0.007,-0.0547 0.0703,-0.22103 0.0703,-0.32005 0,-0.099 -0.0257,-0.3217 -0.0257,-0.3217 l -0.2972,0.1287 -0.18459,0.025 -0.0588,-0.20424 c 0,0 0.0567,-0.0748 0.0567,-0.1222 0,-0.0474 -0.1456,-0.26999 -0.1456,-0.26999 0,0 -0.16593,-0.16825 -0.2052,-0.20073 -0.0393,-0.0325 -0.22249,-0.048 -0.23105,10e-4 -0.009,0.0492 -0.24308,0.35469 -0.24308,0.35469 0,0 0.0514,0.19484 0.0685,0.22909 0.0171,0.0343 0.0306,0.13859 -0.0257,0.18662 -0.0562,0.048 -0.22752,0.0994 -0.22752,0.0994 0,0 -0.0791,-0.009 -0.1111,0.0561 -0.032,0.0654 -0.18714,0.21961 -0.28033,0.28813 -0.0932,0.0685 -0.36371,0.12273 -0.20943,-0.0908 0.15428,-0.2135 0.15439,-0.34153 0.15439,-0.34153 l -0.2398,-0.20857 -0.1728,-0.24107 -0.23941,-0.0633 c 0,0 -0.093,-0.031 -0.0845,-0.076 0.008,-0.045 -0.008,-0.15918 -0.008,-0.15918 0,0 -0.033,-0.1081 -10e-5,-0.16601 0.0329,-0.0579 0.16044,-0.27983 0.16044,-0.27983 0,0 0.59126,-0.11388 0.65136,-0.14701 0.0601,-0.0331 0.20327,-0.22784 0.20327,-0.22784 l -0.12263,-0.12321 0.25042,-0.0258 c 0,0 -0.0563,-0.1794 0.0109,-0.27784 0.0672,-0.0984 0.15059,-0.20834 0.15059,-0.20834 0,0 -0.10333,-0.0902 -0.13759,-0.19298 -0.0343,-0.10278 0,-0.31679 0,-0.31679 l -0.12825,-0.1713 c 0,0 -0.2081,-0.004 -0.15682,0.14177 0.0513,0.14538 0.17975,0.19656 0.0427,0.31647 -0.13704,0.1199 -0.2426,0.24837 -0.2912,0.24837 -0.0486,0 0.0293,-0.16165 0.0456,-0.21062 0.0163,-0.049 0.008,-0.26277 0.008,-0.26277 0,0 -0.14948,-0.11166 -0.15804,0.008 -0.009,0.11969 1.1e-4,0.20491 -0.0855,0.2563 -0.0857,0.0514 -0.17129,0.0599 -0.17129,0.0599 0,0 -0.20407,-0.0846 -0.22031,-0.14356 -0.0162,-0.059 -0.17824,-0.2731 -0.17824,-0.2731 0,0 0.008,-0.21039 0.0935,-0.15054 0.0854,0.0598 0.23103,0.20354 0.24816,0.15405 0.0171,-0.0495 0.0341,-0.0778 0.0257,-0.25504 -0.008,-0.17728 -0.077,-0.35727 0.0258,-0.42579 0.10277,-0.0685 0.42812,-0.12807 0.23135,-0.24645 -0.19677,-0.11836999 -0.10363,-0.20366999 -0.20308,-0.11836999 -0.0995,0.0853 -0.15771,0.14339999 -0.15771,0.14339999 0,0 -0.22151,0.0844 -0.25566,0.12719 -0.0341,0.0428 -0.11648,-0.15599 -0.11648,-0.15599 l -0.13099,-0.10365999 -0.58626,0.32904999 c 0,0 -0.22207,0.17908 0.0432,0.20461 0.26528,0.0255 0.34624,-0.0327 0.36372,0.0387 0.0175,0.0713 -0.37122,0.0555 -0.32956,0.0802 0.0417,0.0247 0.0417,0.0418 0.17014,0.15315 0.12846,0.11134 0.24093,0.0883 0.282,0.19636 0.0411,0.10809 0.0206,0.39131 -0.0361,0.38239 -0.0567,-0.009 -0.24681,-0.14336 -0.38385,-0.27183 -0.13703,-0.12847 -0.24837,-0.16786 -0.24837,-0.22268 0,-0.0548 -0.22719,-0.36804 -0.22719,-0.36804 -0.78522,0.57316 -1.42286,1.30651 -2.01081,2.0938 0,0 0.0171,0.19939 0.0171,0.26778 0,0.0684 -0.17129,0.11977 -0.06,0.20542 0.11135,0.0856 0.23828,0.05 0.23828,0.05 0,0 0.2087,0.0133 0.12306,0.0987 -0.0856,0.0854 -0.14677,0.0866 -0.21412,0.14539 -0.0674,0.0588 -0.0845,0.076 -0.0845,0.076 l 2.77495,1.00418 c 0,0 -0.013,-0.0664 0.14973,-0.10922 0.16273,-0.0428 0.37679,-0.0858 0.37679,-0.0858 l 0.0698,0.17112 v 0.10309 l 0.0352,0.0705 0.93968,0.39782 0.27812,-0.11057 0.42455,-0.11987 c 0,0 0.004,-0.0107 0.0458,0.032 0.0421,0.0427 0.2984,0.0338 0.2984,0.0338 l 0.0671,0.0506 c 0,0 -0.13147,0.27596 -0.003,0.23313 0.12814,-0.0428 0.23017,-0.12708 0.23017,-0.12708 z"
         id="path118107"
         sodipodi:nodetypes="cccccccsccccscsccssccssccccccscscccscscccsssccscccsscssscscccssssscssccsccssccsccccccccccccc" /><path
         style="fill:#ffffff;fill-opacity:0.308564;stroke:#010101;stroke-width:0.065;stroke-linecap:butt;stroke-linejoin:miter;stroke-dasharray:none;stroke-opacity:1"
         d="m 19.078825,3.5081072 c 0,0 0.0348,0.27371 0.06,0.32279 0.0252,0.0491 0.0254,0.22905 0.19639,0.28889 0.17097,0.0599 0.29087,-0.0344 0.29087,-0.0344 l 0.0139,-0.28743 c 0,0 0.10967,-0.28602 0.15239,-0.22618 0.0427,0.0598 0.10256,0.1022 0.11112,0.16177 0.009,0.0596 0.18451,0.16777 0.2102,0.0823 0.0257,-0.0854 0.0857,-0.29096 -0.0257,-0.3852 -0.11138,-0.0942 -0.23978,-0.14348 -0.14567,-0.29743 0.0941,-0.15394 0.19676,-0.28263 0.14548,-0.38508 -0.0513,-0.10244 -0.23977,-0.38519 -0.23977,-0.38519 l -0.35907,-0.1681 -0.14354,-0.14054 0.0572,-0.11373 0.23206,0.0656 -0.0427,-0.23749 c 0,0 -0.0206,-0.23199 -0.31692,-0.0856 -0.29635,0.14635 -0.37123,0.12008 -0.3798,0.26568 -0.009,0.14559 -0.0256,0.214 -0.0256,0.214 0,0 -0.38298,-0.11895 -0.34872,-0.0429 0.0343,0.0761 0.078,0.2477 0.15417,0.31587 0.0762,0.0682 0.1789,0.0248 0.30715,0.0846 0.12826,0.0599 0.37733,-0.0179 0.34307,0.0857 -0.0343,0.1036 -0.15406,0.30936 -0.10278,0.38624 0.0513,0.0769 0.15406,0.23033 0.15406,0.23033 l -0.14927,0.15606 z"
         id="path118109" /><path
         style="fill:#ffffff;fill-opacity:0.308564;stroke:#010101;stroke-width:0.065;stroke-linecap:butt;stroke-linejoin:miter;stroke-dasharray:none;stroke-opacity:1"
         d="m 18.967845,2.9636272 c 0,0 -0.22009,0.12948 -0.17802,0.18869 0.0421,0.0592 0.11413,0.10023 0.16513,0.0913 0.051,-0.009 0.0938,-0.11726 0.0938,-0.11726 z"
         id="path118111" /><path
         style="fill:#ffffff;fill-opacity:0.308564;stroke:#010101;stroke-width:0.065;stroke-linecap:butt;stroke-linejoin:miter;stroke-dasharray:none;stroke-opacity:1"
         d="m 18.450265,2.5352572 c 0.003,0.0423 -0.0572,0.16277 -0.0915,0.23929 -0.0343,0.0765 -0.16057,0.0623 -0.0321,0.17364 0.12848,0.11133 0.27437,0.17945 0.30833,0.069 0.034,-0.11051 0.0768,-0.33282 0.0768,-0.33282 z"
         id="path118113" /><path
         style="fill:#ffffff;fill-opacity:0.308564;stroke:#010101;stroke-width:0.065;stroke-linecap:butt;stroke-linejoin:miter;stroke-dasharray:none;stroke-opacity:1"
         d="m 17.894535,1.1256872 c 0,0 -0.18412,0.11734 -0.20981,0.17555 -0.0257,0.0582 -0.17975,0.10071 -0.0684,0.19492 0.11135,0.0942 0.1958,0.1158 0.21345,0.0778 0.0177,-0.038 0.027,-0.22999 0.0433,-0.28587 0.0163,-0.0559 0.0214,-0.16236 0.0214,-0.16236 z"
         id="path118115" /><path
         style="fill:#ffffff;fill-opacity:0.308564;stroke:#010101;stroke-width:0.065;stroke-linecap:butt;stroke-linejoin:miter;stroke-dasharray:none;stroke-opacity:1"
         d="m 18.271515,1.2282372 c -0.0673,0.036 -0.14433,0.11283 -0.14433,0.18135 0,0.0685 -0.0173,0.12186 0.0676,0.13899 0.0849,0.0171 0.30862,-0.0412 0.30862,-0.0412 0,0 0.0233,-0.20104 -0.0168,-0.22598 -0.0401,-0.0249 -0.21507,-0.0532 -0.21507,-0.0532 z"
         id="path118117" /><path
         style="fill:#ffffff;fill-opacity:0.308564;stroke:#010101;stroke-width:0.065;stroke-linecap:butt;stroke-linejoin:miter;stroke-dasharray:none;stroke-opacity:1"
         d="m 18.723275,0.92604721 c 0,0.0817 -0.0244,0.21168999 0.0428,0.26152999 0.0672,0.0498 0.41492,0.13835 0.45376,0.17849 0.0388,0.0401 0.34393,0.16201 0.34393,0.16201 0,0 0.1644,-0.0817 0.15654,-0.11855 -0.008,-0.0369 -0.15346,-0.20818 -0.15346,-0.20818 0,0 -0.34948,-0.0771 -0.40063,-0.10267 -0.0511,-0.0255 -0.31699,-0.15395999 -0.31699,-0.15395999 z"
         id="path118119" /></g></g></svg>
